<!--
  Pour IQ lockup: the pour mark beside the wordmark. The wordmark is
  Bricolage Grotesque 800 converted to outlined paths (no font dependency;
  renders identically everywhere). Generated by
  scripts/generate-brand-assets.mjs - do not edit by hand.
  Colours from lib/design-tokens.ts: chalk #F2EFE6, measure #D98E2B.
-->
<svg xmlns="http://www.w3.org/2000/svg" viewBox="0 0 250 64" role="img" aria-label="Pour IQ">
  <rect fill="#D98E2B" x="30" y="0" width="4" height="42"/>
  <rect fill="#D98E2B" x="6" y="48" width="52" height="6"/>
  <path fill="#F2EFE6" d="M90.31 39.67L84.60 39.67L84.60 33.97L91.36 33.97Q94.35 33.97 95.83 32.73Q97.30 31.49 97.30 28.54Q97.30 25.97 95.94 24.63Q94.58 23.30 91.64 23.30L84.60 23.30L84.60 17.64L91.87 17.64Q94.81 17.64 97.18 18.33Q99.55 19.02 101.25 20.38Q102.96 21.73 103.85 23.83Q104.75 25.92 104.75 28.73Q104.75 32.31 103.12 34.75Q101.48 37.19 98.29 38.43Q95.09 39.67 90.31 39.67M86.58 48L79.17 48L79.17 17.64L86.58 17.64 M120.11 48.64Q116.43 48.64 113.61 47.22Q110.78 45.79 109.17 42.94Q107.56 40.09 107.56 35.81Q107.56 31.53 109.17 28.70Q110.78 25.87 113.63 24.47Q116.48 23.07 120.16 23.07Q123.84 23.07 126.69 24.49Q129.54 25.92 131.15 28.75Q132.76 31.58 132.76 35.86Q132.76 40.23 131.11 43.08Q129.45 45.93 126.58 47.29Q123.70 48.64 120.11 48.64M120.34 43.26Q122 43.26 123.10 42.50Q124.21 41.74 124.76 40.18Q125.31 38.62 125.31 36.32Q125.31 33.88 124.71 32.20Q124.12 30.52 122.94 29.62Q121.77 28.73 119.93 28.73Q118.37 28.73 117.24 29.48Q116.11 30.24 115.56 31.81Q115.01 33.37 115.01 35.72Q115.01 39.49 116.41 41.38Q117.81 43.26 120.34 43.26 M145.41 48.64Q141.09 48.64 138.91 45.72Q136.72 42.80 136.72 36.82L136.72 23.71L144.17 23.71L144.17 35.86Q144.17 39.26 145.18 40.94Q146.20 42.62 148.27 42.62Q149.51 42.62 150.41 42Q151.30 41.38 151.92 40.25Q152.54 39.12 152.84 37.65Q153.14 36.18 153.14 34.43L153.14 23.71L160.55 23.71L160.55 38.16L160.55 48L154.66 48L154.52 40.50L153.60 40.50Q152.91 43.35 151.88 45.17Q150.84 46.99 149.28 47.82Q147.71 48.64 145.41 48.64 M173.70 48L166.25 48L166.25 36.73L166.25 23.71L172.32 23.71L172.46 31.95L173.38 31.95Q173.70 28.73 174.60 26.82Q175.50 24.91 177.18 24.03Q178.86 23.16 181.34 23.16Q181.71 23.16 182.17 23.18Q182.63 23.21 183.23 23.30L182.95 31.21Q182.21 30.84 181.36 30.73Q180.51 30.61 179.87 30.61Q178.07 30.61 176.76 31.30Q175.45 31.99 174.69 33.42Q173.93 34.84 173.70 37.01 M204.89 48L197.35 48L197.35 17.64L204.89 17.64 M239.44 49.33L239.44 55.22Q235.99 55.91 233.57 56.10Q231.16 56.28 229.29 56.10Q227.43 55.91 225.68 55.54Q223.94 55.18 221.91 54.81Q219.89 54.44 217.13 54.26Q214.37 54.07 210.37 54.26L210.37 48.23Q211.61 48.32 213.47 48.30Q215.33 48.28 217.47 48.12Q219.61 47.95 221.73 47.68Q223.84 47.40 225.61 46.97Q227.39 46.53 228.40 45.93L228.40 45.33Q224.63 46.44 221.66 46.39Q218.69 46.34 216.51 45.33Q214.32 44.32 212.94 42.48Q211.56 40.64 210.87 38.16Q210.18 35.67 210.18 32.73Q210.18 29.37 211.10 26.50Q212.02 23.62 213.86 21.50Q215.70 19.39 218.46 18.19Q221.22 17 224.95 17Q229.55 17 232.79 18.88Q236.03 20.77 237.76 24.26Q239.48 27.76 239.48 32.64Q239.48 37.05 238.24 40.02Q237 42.99 234.81 44.83Q232.63 46.67 229.66 47.66Q226.70 48.64 223.25 49.06L223.25 49.70Q225.78 49.98 227.85 50.16Q229.92 50.35 231.80 50.35Q233.69 50.35 235.53 50.12Q237.37 49.89 239.44 49.33M224.99 42.89Q227.39 42.89 228.95 41.81Q230.51 40.73 231.27 38.57Q232.03 36.41 232.03 33.14Q232.03 29.78 231.23 27.53Q230.42 25.28 228.79 24.10Q227.16 22.93 224.72 22.93Q222.42 22.93 220.83 24.06Q219.24 25.18 218.46 27.39Q217.68 29.60 217.68 32.91Q217.68 36.22 218.48 38.45Q219.29 40.69 220.95 41.79Q222.60 42.89 224.99 42.89"/>
</svg>
